<svg width="14" height="16" fill="none" xmlns="http://www.w3.org/2000/svg"><g clip-path="url(#a)"><path d="M7.003 4.406a3.585 3.585 0 0 0-3.59 3.59 3.585 3.585 0 0 0 3.59 3.591 3.585 3.585 0 0 0 3.59-3.59 3.585 3.585 0 0 0-3.59-3.59Zm0 5.925A2.339 2.339 0 0 1 4.67 7.997a2.337 2.337 0 0 1 2.334-2.335 2.337 2.337 0 0 1 2.334 2.335 2.339 2.339 0 0 1-2.334 2.334Zm4.575-6.072a.836.836 0 0 1-.837.838.838.838 0 1 1 .837-.837Zm2.378.85c-.053-1.122-.31-2.115-1.131-2.934-.819-.819-1.813-1.075-2.934-1.131-1.157-.066-4.622-.066-5.779 0-1.118.053-2.112.31-2.934 1.128C.356 2.99.103 3.984.047 5.106c-.066 1.156-.066 4.622 0 5.778C.1 12.006.357 13 1.178 13.82c.822.818 1.813 1.075 2.934 1.131 1.157.066 4.622.066 5.779 0 1.121-.053 2.115-.31 2.934-1.131.819-.819 1.075-1.813 1.131-2.935.066-1.156.066-4.618 0-5.775Zm-1.493 7.016a2.363 2.363 0 0 1-1.332 1.331c-.922.366-3.11.282-4.128.282-1.019 0-3.21.08-4.128-.282a2.363 2.363 0 0 1-1.331-1.331c-.366-.922-.282-3.11-.282-4.128 0-1.019-.08-3.21.282-4.128a2.363 2.363 0 0 1 1.331-1.332c.922-.365 3.11-.28 4.128-.28 1.019 0 3.21-.082 4.128.28a2.364 2.364 0 0 1 1.332 1.332c.365.922.28 3.11.28 4.128 0 1.019.085 3.21-.28 4.128Z" fill="#fff"/></g><defs><clipPath id="a"><path fill="#fff" d="M0 0h14v16H0z"/></clipPath></defs></svg>